# xmcd
#
# Track frame offsets: 
#        150
#        27814
#        50525
#        74547
#        96969
#        114768
#        136040
#        150917
#        172196
#        201962
#        223097
#        249070
#
# Disc length: 3797 seconds
#
# Revision: 2
# Processed by: cddbd v1.5.2PL0 Copyright (c) Steve Scherf et al.
# Submitted via: ExactAudioCopyFreeDBPlugin 1.0
#
DISCID=9d0ed30c
DTITLE=ネーネーズ - reborn
DYEAR=2015
DGENRE=Folk
TTITLE0=明けもどろ
TTITLE1=あめりか通り
TTITLE2=ウムカジ
TTITLE3=ノーウーマン・ノークライ
TTITLE4=SAKISHIMAのテーマ
TTITLE5=平和の琉歌
TTITLE6=バイバイ沖縄
TTITLE7=山河,今は遠く
TTITLE8=テーゲー
TTITLE9=国頭(クンジャン)サバクイ
TTITLE10=真夜中のドライバー
TTITLE11=黄金の花
EXTD=Powerd by gracenote music web API
EXTT0=
EXTT1=
EXTT2=
EXTT3=
EXTT4=
EXTT5=
EXTT6=
EXTT7=
EXTT8=
EXTT9=
EXTT10=
EXTT11=
PLAYORDER=
